<svg id="Layer_1" height="512" viewBox="0 0 128 128" width="512" xmlns="http://www.w3.org/2000/svg" data-name="Layer 1"><path d="m106.008 18.192h15.492v12h-15.492z" fill="#fb4a59"/><path d="m106.008 36.192h15.492v12h-15.492z" fill="#fb4a59"/><path d="m106.008 54.192h15.492v12h-15.492z" fill="#fb4a59"/><path d="m6.5 6.5h106.154v115h-106.154z" fill="#fcb44d"/><g fill="#f2f2f2"><path d="m88.327 85.083h-57.5a1.75 1.75 0 0 1 0-3.5h57.5a1.75 1.75 0 0 1 0 3.5z"/><path d="m88.327 95.75h-57.5a1.75 1.75 0 0 1 0-3.5h57.5a1.75 1.75 0 0 1 0 3.5z"/><path d="m88.327 106.417h-57.5a1.75 1.75 0 1 1 0-3.5h57.5a1.75 1.75 0 0 1 0 3.5z"/><path d="m12.5 34.789a1.75 1.75 0 0 1 -1.75-1.75v-20.539a1.75 1.75 0 0 1 3.5 0v20.539a1.75 1.75 0 0 1 -1.75 1.75z"/><path d="m39.077 24.192h41v17.692h-41z"/></g></svg>