<svg id="Layer_1" height="512" viewBox="0 0 128 128" width="512" xmlns="http://www.w3.org/2000/svg" data-name="Layer 1"><path d="m6.5 15.346h115v97.308h-115z" fill="#f2f2f2"/><g fill="#4e8ed5"><path d="m6.5 15.346h115v17.692h-115z"/><path d="m64 97.289a24.443 24.443 0 1 1 24.443-24.443 24.47 24.47 0 0 1 -24.443 24.443zm0-45.389a20.943 20.943 0 1 0 20.943 20.946 20.966 20.966 0 0 0 -20.943-20.946z"/><path d="m82.256 88.078a1.745 1.745 0 0 1 -1.067-.364c-3.968-3.059-10.394-4.885-17.189-4.885s-13.221 1.826-17.189 4.885a1.75 1.75 0 1 1 -2.137-2.771c4.626-3.568 11.672-5.614 19.326-5.614s14.7 2.046 19.325 5.613a1.75 1.75 0 0 1 -1.069 3.136z"/><path d="m64 66.363c-7.654 0-14.7-2.046-19.326-5.613a1.75 1.75 0 1 1 2.137-2.771c3.968 3.058 10.389 4.884 17.189 4.884s13.221-1.826 17.188-4.885a1.75 1.75 0 1 1 2.137 2.771c-4.625 3.568-11.671 5.614-19.325 5.614z"/><path d="m86.693 74.6h-45.386a1.75 1.75 0 0 1 0-3.5h45.386a1.75 1.75 0 0 1 0 3.5z"/><path d="m64 97.289c-8.231 0-14.679-10.736-14.679-24.443s6.448-24.446 14.679-24.446 14.679 10.74 14.679 24.446-6.448 24.443-14.679 24.443zm0-45.389c-6.06 0-11.179 9.591-11.179 20.942s5.119 20.947 11.179 20.947 11.179-9.589 11.179-20.943-5.119-20.946-11.179-20.946z"/></g><circle cx="24.192" cy="24.192" fill="#f2f2f2" r="3"/><circle cx="34.833" cy="24.192" fill="#f2f2f2" r="3"/><circle cx="45.474" cy="24.192" fill="#f2f2f2" r="3"/></svg>