<svg id="Layer_1" height="512" viewBox="0 0 128 128" width="512" xmlns="http://www.w3.org/2000/svg" data-name="Layer 1"><path d="m6.5 33.038h115v79.615h-115z" fill="#f2f2f2"/><path d="m6.5 52.67h115v40.36h-115z" fill="#fcb44d"/><path d="m108.667 40.789h-24.084a1.75 1.75 0 0 1 0-3.5h24.084a1.75 1.75 0 0 1 0 3.5z" fill="#d8d8d8"/><path d="m87.5 33.038h-47l3.596-17.692h39.808z" fill="#fcb44d"/><path d="m14.885 24.346h13.615v8.692h-13.615z" fill="#d8d8d8"/><path d="m70.808 25.942h-13.616a1.75 1.75 0 0 1 0-3.5h13.616a1.75 1.75 0 0 1 0 3.5z" fill="#f2f2f2"/><circle cx="64" cy="72.846" fill="#d8d8d8" r="26.179"/><path d="m64 93.026a20.18 20.18 0 1 1 20.18-20.18 20.2 20.2 0 0 1 -20.18 20.18z" fill="#f2f2f2"/></svg>