<svg id="Layer_1" enable-background="new 0 0 128 128" height="512" viewBox="0 0 128 128" width="512" xmlns="http://www.w3.org/2000/svg"><path d="m42.2 81.7 8.2 39.8h13.6 13.6l8.2-39.8" fill="#d8d8d8"/><path d="m70 44.1h-12c-11 0-20 9-20 20v17.6h52v-17.6c0-11-8.9-20-20-20z" fill="#4e8ed5"/><g fill="#f2f2f2"><circle cx="64" cy="27.9" r="21.4"/><path d="m24.2 64h79.6v17.7h-79.6z"/><path d="m72.7 117.3c-1 0-1.8-.8-1.8-1.8 0-.1 0-.2 0-.3l4.4-21.2c.2-.9 1.1-1.5 2.1-1.3.9.2 1.5 1.1 1.3 2l-4.4 21.2c-.1.8-.8 1.3-1.6 1.4z"/></g></svg>