<svg id="Layer_1" enable-background="new 0 0 128 128" height="512" viewBox="0 0 128 128" width="512" xmlns="http://www.w3.org/2000/svg"><path d="m96.3 18.2h25.2v12h-25.2z" fill="#fb4a59"/><path d="m96.3 36.2h25.2v12h-25.2z" fill="#fb4a59"/><path d="m96.3 54.2h25.2v12h-25.2z" fill="#fb4a59"/><path d="m6.6 6.5h106.2v115h-106.2z" fill="#4e8ed5"/><g fill="#f2f2f2"><path d="m75.2 66.2h-31.1v-13.2c0-5.2 4.2-9.3 9.3-9.3h12.5c5.2 0 9.3 4.2 9.3 9.3z"/><circle cx="59.7" cy="34" r="12.8"/><path d="m88.4 85.1h-57.5c-1 0-1.8-.8-1.8-1.8s.8-1.8 1.8-1.8h57.5c1 0 1.8.8 1.8 1.8s-.8 1.8-1.8 1.8z"/><path d="m88.4 95.8h-57.5c-1 0-1.8-.8-1.8-1.8s.8-1.8 1.8-1.8h57.5c1 0 1.8.8 1.8 1.8s-.8 1.8-1.8 1.8z"/><path d="m88.4 106.4h-57.5c-1 0-1.8-.8-1.8-1.8s.8-1.8 1.8-1.8h57.5c1 0 1.8.8 1.8 1.8s-.8 1.8-1.8 1.8z"/><path d="m12.5 34.8c-1 0-1.8-.8-1.8-1.8v-20.5c0-1 .8-1.8 1.8-1.8s1.8.8 1.8 1.8v20.5c0 1-.8 1.8-1.8 1.8z"/></g></svg>