<svg id="Layer_1" height="512" viewBox="0 0 128 128" width="512" xmlns="http://www.w3.org/2000/svg" data-name="Layer 1"><rect fill="#4e8ed5" height="115" rx="6" width="79.615" x="24.192" y="6.5"/><g fill="#f2f2f2"><path d="m24.19 24.19h79.62v79.62h-79.62z"/><circle cx="64" cy="112.654" r="4"/><path d="m72.846 17.1h-17.692a1.75 1.75 0 0 1 0-3.5h17.692a1.75 1.75 0 0 1 0 3.5z"/></g><path d="m53.225 50.223s-2.192-6.123-9.95-6.123-9.95 7.095-9.95 11.94c0 11.68 11.017 22.5 19.9 27.86 8.883-5.364 19.9-16.18 19.9-27.86 0-4.845-2.192-11.94-9.95-11.94s-9.95 6.123-9.95 6.123z" fill="#fb4a59"/><path d="m78.925 53.1a8.107 8.107 0 0 0 -7.875-4.85c-6.14 0-7.875 5.615-7.875 9.45 0 9.245 8.72 17.8 15.75 22.05 7.03-4.246 15.75-12.805 15.75-22.05 0-3.835-1.735-9.45-7.875-9.45a8.107 8.107 0 0 0 -7.875 4.85z" fill="#d53f4c"/></svg>