<svg id="Layer_1" enable-background="new 0 0 128 128" height="512" viewBox="0 0 128 128" width="512" xmlns="http://www.w3.org/2000/svg"><path d="m6.5 6.5h115v115h-115z" fill="#f2f2f2"/><g fill="#4e8ed5"><path d="m47.5 22.1c4.4-1.9 9-3 13.8-3.3.9-.1 1.7-.1 2.5-.1 10.7 0 20.9 4.3 28.5 11.8.7.7 1.8.7 2.5 0s.7-1.8 0-2.5c-8.2-8.2-19.4-12.8-31-12.9-.8 0-1.7 0-2.7.1-5.2.3-10.2 1.5-15 3.6-.9.4-1.3 1.4-.9 2.3.4 1 1.4 1.4 2.3 1z"/><path d="m34.8 30.2c.4 0 .9-.2 1.2-.5 1.3-1.2 2.6-2.3 4-3.3.8-.6 1-1.6.4-2.4s-1.6-1-2.4-.4c-1.5 1.1-3 2.3-4.3 3.6-.7.7-.7 1.8-.1 2.5.3.3.7.5 1.2.5z"/><path d="m100 48.8c-1.6-5.8-4.6-11.1-8.7-15.5-5.5-5.9-12.8-9.9-20.7-11.4-1-.2-1.9.5-2 1.4-.2.9.4 1.8 1.4 2 7.2 1.4 13.8 5 18.8 10.3 3.7 4 6.4 8.8 7.9 14.1.3.9 1.2 1.5 2.1 1.2s1.5-1.1 1.2-2.1z"/><path d="m29.1 48.9c.9.3 1.9-.2 2.2-1.1 4.5-13.1 16.5-22.2 30.3-23 1-.1 1.7-.9 1.6-1.8-.1-1-.9-1.7-1.8-1.6-15.3.8-28.4 10.8-33.4 25.2-.3 1 .2 2 1.1 2.3z"/><path d="m63.7 27.2c-.6 0-1.3 0-1.9.1-11.3.7-21.3 7.3-26.4 17.4-.4.9-.1 1.9.8 2.4.9.4 1.9.1 2.4-.8 4.5-9 13.5-14.8 23.5-15.4.6 0 1.2-.1 1.7-.1 15.6 0 28.2 12.6 28.2 28.2 0 1.2-.1 2.5-.2 3.7-1.6 11.7-6.6 25.8-13.7 38.8-.5.8-.2 1.9.7 2.4.8.5 1.9.2 2.4-.7 7.5-13.5 12.5-27.8 14.1-40 2.3-17.4-9.9-33.3-27.3-35.6-1.5-.3-2.9-.4-4.3-.4z"/><path d="m31.8 67.2c1.5-3.3 3.4-8.1 3.9-12 .1-1-.5-1.8-1.5-2s-1.8.5-2 1.5c-.7 3.8-1.9 7.5-3.6 11-.4.9 0 1.9.9 2.3.8.5 1.9.1 2.3-.8z"/><path d="m86.3 68.6c-.9-.2-1.9.3-2.1 1.3-3.3 13.2-10.3 28.2-18.8 40.1-.6.8-.4 1.9.4 2.4s1.9.4 2.4-.4c8.8-12.2 16-27.7 19.3-41.3.3-.9-.3-1.9-1.2-2.1z"/><path d="m87.2 63.8c1 .1 1.8-.5 2-1.5 1-7.6-1.4-15.2-6.6-20.8-4.1-4.4-9.6-7.2-15.5-8-1-.1-1.8.5-2 1.5-.1 1 .5 1.8 1.5 2 5.1.7 9.9 3.1 13.4 6.9 4.5 4.8 6.6 11.4 5.7 18-.1.9.6 1.8 1.5 1.9z"/><path d="m34.1 76.1c4.1-7.6 6.8-14.9 7.5-20 1-7.7 6-14.3 13.1-17.5 1.4-.6 2.8-1.1 4.2-1.4.9-.2 1.5-1.1 1.3-2.1-.2-.9-1.1-1.5-2.1-1.3-1.7.4-3.3.9-4.9 1.6-8.2 3.6-14 11.3-15.2 20.2-.6 4.6-3.3 11.6-7.1 18.8-.5.9-.1 1.9.7 2.4.3.1.5.2.8.2.8 0 1.4-.4 1.7-.9z"/><path d="m78.1 45.5c-7.4-8-19.8-8.5-27.8-1.1-.7.6-.8 1.8-.1 2.5.6.7 1.8.8 2.5.1 6.6-6.1 16.9-5.6 22.9.9 3.3 3.5 4.8 8.3 4.2 13.1-2 14.8-10.6 34.3-21.5 48.6-.6.8-.5 1.9.3 2.5s1.9.5 2.5-.3c0 0 0 0 0-.1 11.2-14.7 20.1-34.9 22.1-50.2.8-5.8-1.1-11.7-5.1-16z"/><path d="m47.6 56.8c.2-1.2.4-2.4.9-3.5.4-.9-.1-1.9-1-2.3s-1.9.1-2.3 1v.1c-.5 1.4-.9 2.8-1.1 4.3-.8 6.4-4.8 16.2-10.2 25.1-.5.8-.2 1.9.6 2.4s1.9.2 2.4-.6c4.5-7.4 9.6-18.2 10.7-26.5z"/><path d="m73.8 49.6c-1.6-1.8-3.7-3-5.9-3.8-.9-.3-1.9.2-2.2 1.1s.2 1.9 1.1 2.2c1.7.5 3.2 1.5 4.4 2.8 2.1 2.2 3 5.2 2.6 8.2-1.9 14-10.4 33.1-20.8 46.4-.6.8-.5 1.9.3 2.5s1.9.5 2.5-.3c0 0 0 0 0-.1 10.7-13.6 19.5-33.4 21.5-47.9.5-4.1-.8-8.1-3.5-11.1z"/><path d="m59.5 49.6c.9-.4 1.3-1.4 1-2.3-.4-.9-1.4-1.3-2.3-1 0 0-.1 0-.1.1-4.4 1.9-7.4 6-8.1 10.8-1.2 9.4-7.4 22.1-12.9 30.5-.5.8-.3 1.9.5 2.4s1.9.3 2.4-.5c5.4-8.1 12.1-21.3 13.5-32 .5-3.6 2.8-6.6 6-8z"/><path d="m63 81.3c-.9-.4-1.9 0-2.3.9-3.3 7.3-7.4 14.2-12.2 20.5-.6.8-.5 1.9.3 2.5s1.9.5 2.5-.3c5-6.6 9.2-13.7 12.7-21.2.3-.9-.1-2-1-2.4z"/><path d="m63.4 54.7h.1c1.3 0 2.5.5 3.3 1.5.8.9 1.2 2.1 1 3.3-.8 5.2-2.1 10.3-4 15.2-.3.9.1 1.9 1.1 2.2.9.3 1.9-.1 2.2-1 2-5.1 3.4-10.5 4.2-16 .3-2.2-.4-4.4-1.8-6-1.5-1.7-3.6-2.7-5.8-2.7-.2 0-.3 0-.5 0-3.7.2-6.7 3-7.2 6.7-1.3 9.8-7.6 24.3-15.4 35.3-.6.7-.4 1.8.4 2.4s1.9.4 2.4-.4c8.1-11.4 14.7-26.6 16-36.8.3-2.1 2-3.6 4-3.7z"/><path d="m63.3 61.5c-.9-.2-1.9.4-2.1 1.3-2.4 11.1-9.1 25-16.9 35.4-.6.8-.4 1.9.4 2.4.8.6 1.9.4 2.4-.3 8.1-10.8 15-25.2 17.5-36.8.3-.9-.3-1.8-1.3-2z"/></g></svg>