<svg id="Layer_1" height="512" viewBox="0 0 128 128" width="512" xmlns="http://www.w3.org/2000/svg" data-name="Layer 1"><path d="m64 49.109a1.75 1.75 0 0 1 -1.75-1.75v-21.24a25.725 25.725 0 0 1 3.077-12.179l4.466-8.271a1.75 1.75 0 0 1 3.08 1.662l-4.466 8.269a22.213 22.213 0 0 0 -2.657 10.519v21.24a1.75 1.75 0 0 1 -1.75 1.75z" fill="#f2f2f2"/><path d="m61 35.359h6v21.141h-6z" fill="#d8d8d8"/><path d="m117.25 117.26a14.478 14.478 0 0 1 -21.19-.77l-16.26-22.35a5.989 5.989 0 0 0 -4.85-2.47h-21.9a5.989 5.989 0 0 0 -4.85 2.47l-16.26 22.35a14.485 14.485 0 0 1 -24.83-13.63l14.81-48.07a17.057 17.057 0 0 1 16.34-12.16 17.2 17.2 0 0 1 3.79.42l17.54 3.99a13.04 13.04 0 0 0 2.85.32h3.12a13.04 13.04 0 0 0 2.85-.32l17.54-3.99a16.615 16.615 0 0 1 3.79-.42 17.057 17.057 0 0 1 16.34 12.16l14.81 48.07a14.482 14.482 0 0 1 -3.64 14.4z" fill="#f2f2f2"/><path d="m76.323 85.063h-6a1.75 1.75 0 0 1 0-3.5h6a1.75 1.75 0 0 1 0 3.5z" fill="#d8d8d8"/><path d="m57.677 85.063h-6a1.75 1.75 0 0 1 0-3.5h6a1.75 1.75 0 0 1 0 3.5z" fill="#d8d8d8"/><g fill="#4e8ed5"><path d="m51.99 61.511h-7.688v-7.687h-8.227v7.687h-7.687v8.228h7.687v7.687h8.227v-7.687h7.688z"/><circle cx="87.811" cy="57.938" r="4.114"/><circle cx="87.811" cy="73.312" r="4.114"/><circle cx="95.499" cy="65.625" r="4.114"/><circle cx="80.124" cy="65.625" r="4.114"/></g></svg>