<svg id="Layer_1" height="512" viewBox="0 0 128 128" width="512" xmlns="http://www.w3.org/2000/svg" data-name="Layer 1"><path d="m114.44 68.487h-4.86a7.06 7.06 0 0 1 0 14.12h-4.86a7.06 7.06 0 1 1 0 14.12h-4.86a7.055 7.055 0 1 1 0 14.11h-29.97c-12.23 0-21.51-1.49-25.39-3.37h-27.75v-44.75h27.75c9.67 0 21.67-14.92 23.33-28.58.6-4.93 1.04-8.51 1.36-11.08a6.722 6.722 0 0 1 13.1-1.14l2.23 7.31a28.753 28.753 0 0 1 .41 15.26l-2.45 9.88h31.96a7.06 7.06 0 1 1 0 14.12z" fill="#4e8ed5"/><path d="m16.75 62.717h27.75v44.75h-27.75z" fill="#d8d8d8"/><path d="m6.5 59.342h24.125v51.5h-24.125z" fill="#f2f2f2"/></svg>