<svg id="Layer_1" height="512" viewBox="0 0 128 128" width="512" xmlns="http://www.w3.org/2000/svg" data-name="Layer 1"><path d="m115.51 12.49a20.479 20.479 0 0 0 -28.95 0l-16.57 16.57a20.471 20.471 0 1 0 28.95 28.95l16.57-16.57a20.485 20.485 0 0 0 0-28.95zm-5.61 23.34-16.57 16.57a12.542 12.542 0 0 1 -17.73 0 12.548 12.548 0 0 1 0-17.73l16.57-16.57a12.537 12.537 0 0 1 17.73 17.73z" fill="#1bce89"/><path d="m58.01 69.99a20.485 20.485 0 0 0 -28.95 0l-16.57 16.57a20.471 20.471 0 0 0 28.95 28.95l16.57-16.57a20.479 20.479 0 0 0 0-28.95zm-5.61 23.34-16.57 16.57a12.537 12.537 0 0 1 -17.73-17.73l16.57-16.57a12.535 12.535 0 0 1 21.4 8.87 12.417 12.417 0 0 1 -3.67 8.86z" fill="#1bce89"/><rect fill="#16a870" height="7.927" rx="3.964" transform="matrix(.707 -.707 .707 .707 -26.51 64)" width="65.404" x="31.298" y="60.036"/></svg>