<svg id="Layer_1" height="512" viewBox="0 0 128 128" width="512" xmlns="http://www.w3.org/2000/svg" data-name="Layer 1"><path d="m95.424 114.4h-57.757a1.75 1.75 0 0 1 -1.75-1.75v-97.3a1.75 1.75 0 0 1 1.75-1.75h57.757a1.75 1.75 0 0 1 1.75 1.75v38.65a1.75 1.75 0 1 1 -3.5 0v-36.9h-54.257v93.8h54.257v-36.9a1.75 1.75 0 0 1 3.5 0v38.65a1.75 1.75 0 0 1 -1.75 1.75z" fill="#d8d8d8"/><path d="m46.883 121.5-39.807-17.692v-79.616l39.807-17.692z" fill="#fb4a59"/><path d="m13.076 97.083a1.75 1.75 0 0 1 -1.75-1.75v-28.666a1.75 1.75 0 0 1 3.5 0v28.666a1.75 1.75 0 0 1 -1.75 1.75z" fill="#d53f4c"/><path d="m122.162 62.763-12.51-12.511a1.75 1.75 0 0 0 -2.475 2.475l9.523 9.523h-53.276a1.75 1.75 0 0 0 0 3.5h53.276l-9.523 9.523a1.75 1.75 0 1 0 2.475 2.475l12.51-12.511a1.749 1.749 0 0 0 0-2.474z" fill="#d8d8d8"/></svg>