<svg id="Layer_1" height="512" viewBox="0 0 128 128" width="512" xmlns="http://www.w3.org/2000/svg" data-name="Layer 1"><path d="m61.153 95.75h-14.153a1.75 1.75 0 0 1 0-3.5h14.153a9.289 9.289 0 0 0 9.279-9.278v-8.222a1.75 1.75 0 0 1 3.5 0v8.222a12.793 12.793 0 0 1 -12.779 12.778z" fill="#d8d8d8"/><circle cx="104.43" cy="52.5" fill="#f2f2f2" r="17.07"/><path d="m28.4 74.75 13.25 46.75h14.125l-2.75-45.5" fill="#1bce89"/><path d="m65.513 24.25h-30.143a28.25 28.25 0 1 0 0 56.5h30.143c16.87 0 38.917 17.75 38.917 17.75v-92s-22.047 17.75-38.917 17.75z" fill="#1bce89"/><path d="m19.637 38.508a1.75 1.75 0 0 1 -1.237-2.989 23.873 23.873 0 0 1 16.97-7.019h17.63a1.75 1.75 0 0 1 0 3.5h-17.63a20.394 20.394 0 0 0 -14.5 6 1.743 1.743 0 0 1 -1.233.508z" fill="#16a870"/></svg>