<svg id="Layer_1" height="512" viewBox="0 0 128 128" width="512" xmlns="http://www.w3.org/2000/svg" data-name="Layer 1"><g fill="#4e8ed5"><circle cx="16.498" cy="14.727" r="8.227"/><circle cx="111.498" cy="14.727" r="8.227"/><circle cx="16.498" cy="100.834" r="8.227"/><path d="m112.167 107.051h-1.339a9.331 9.331 0 0 0 -9.331 9.331v5.118h20v-5.114a9.331 9.331 0 0 0 -9.33-9.335z"/><circle cx="111.498" cy="100.834" r="8.227"/><path d="m17.167 20.944h-1.339a9.331 9.331 0 0 0 -9.328 9.331v5.114h20v-5.114a9.331 9.331 0 0 0 -9.333-9.331z"/><path d="m112.167 20.944h-1.339a9.331 9.331 0 0 0 -9.331 9.331v5.114h20v-5.114a9.331 9.331 0 0 0 -9.33-9.331z"/><path d="m17.167 107.051h-1.339a9.331 9.331 0 0 0 -9.328 9.331v5.118h20v-5.114a9.331 9.331 0 0 0 -9.333-9.335z"/><path d="m64.667 64h-1.339a9.331 9.331 0 0 0 -9.328 9.328v5.114h20v-5.114a9.331 9.331 0 0 0 -9.333-9.328z"/><circle cx="63.998" cy="57.78" r="8.227"/></g><path d="m78.667 62.25a1.75 1.75 0 0 1 -1.079-3.128l25.141-19.667a1.75 1.75 0 1 1 2.156 2.756l-25.14 19.667a1.738 1.738 0 0 1 -1.078.372z" fill="#d8d8d8"/><path d="m49.333 62.25a1.738 1.738 0 0 1 -1.077-.372l-25.142-19.667a1.75 1.75 0 1 1 2.156-2.756l25.142 19.667a1.75 1.75 0 0 1 -1.079 3.128z" fill="#d8d8d8"/><path d="m30.5 107a1.75 1.75 0 0 1 -1.08-3.128l26.5-20.75a1.75 1.75 0 1 1 2.158 2.756l-26.5 20.75a1.742 1.742 0 0 1 -1.078.372z" fill="#d8d8d8"/><path d="m97.5 107a1.742 1.742 0 0 1 -1.078-.372l-26.5-20.75a1.75 1.75 0 0 1 2.158-2.756l26.5 20.75a1.75 1.75 0 0 1 -1.08 3.128z" fill="#d8d8d8"/></svg>