<svg id="Layer_1" enable-background="new 0 0 128 128" height="512" viewBox="0 0 128 128" width="512" xmlns="http://www.w3.org/2000/svg"><path d="m30.2 6.5h67.6c3.3 0 6 2.7 6 6v103c0 3.3-2.7 6-6 6h-67.6c-3.3 0-6-2.7-6-6v-103c0-3.3 2.7-6 6-6z" fill="#4e8ed5"/><g fill="#f2f2f2"><path d="m24.2 24.2h79.6v79.6h-79.6z"/><circle cx="64" cy="112.7" r="4"/><path d="m72.8 17.1h-17.6c-1 0-1.8-.8-1.8-1.8s.8-1.8 1.8-1.8h17.7c1 0 1.8.8 1.8 1.8s-.9 1.8-1.9 1.8z"/></g><path d="m60.3 49.5v-9.1c0-2.1 1.7-3.8 3.8-3.8s3.8 1.7 3.8 3.8v9.1" fill="#d69941"/><path d="m71.7 83.9c0 4.3-3.5 7.7-7.7 7.7-4.3 0-7.7-3.5-7.7-7.7z" fill="#d69941"/><path d="m85.6 79.2c0 2.6-2.1 4.7-4.7 4.7h-33.8c-2.6 0-4.7-2.1-4.7-4.7 0-1.3.5-2.5 1.4-3.3.9-.9 2.1-1.4 3.3-1.4h2v-15.5c0-8.2 6.7-14.9 14.9-14.9s14.9 6.7 14.9 14.9v15.5h2c2.6-.1 4.7 2 4.7 4.7z" fill="#fcb44d"/></svg>