<svg id="Layer_1" height="512" viewBox="0 0 128 128" width="512" xmlns="http://www.w3.org/2000/svg" data-name="Layer 1"><path d="m6.5 15.346h115v97.308h-115z" fill="#f2f2f2"/><path d="m6.5 15.346h115v17.692h-115z" fill="#1bce89"/><g fill="#f2f2f2"><circle cx="24.192" cy="24.192" r="3"/><circle cx="34.833" cy="24.192" r="3"/><circle cx="45.474" cy="24.192" r="3"/></g><path d="m46.291 52.597h35.417v42.942h-35.417z" fill="#16a870"/><path d="m59.181 83.009h9.638v12.53h-9.638z" fill="#1bce89"/><path d="m88.022 64.426-6.314-17.153h-35.416l-6.314 17.153v2.646a6.005 6.005 0 1 0 12.011 0 6.005 6.005 0 0 0 12.011 0 6.005 6.005 0 0 0 12.011 0 6.005 6.005 0 1 0 12.011 0z" fill="#1bce89"/></svg>