<svg id="Layer_1" height="512" viewBox="0 0 128 128" width="512" xmlns="http://www.w3.org/2000/svg" data-name="Layer 1"><path d="m6.5 44.096h115v39.808h-115z" fill="#f2f2f2"/><g fill="#4e8ed5"><path d="m28.274 62.25h-2.609l1.845-1.845a1.75 1.75 0 1 0 -2.475-2.475l-1.845 1.846v-2.609a1.75 1.75 0 0 0 -3.5 0v2.608l-1.844-1.844a1.75 1.75 0 0 0 -2.475 2.475l1.845 1.845h-2.609a1.75 1.75 0 0 0 0 3.5h2.609l-1.845 1.845a1.75 1.75 0 1 0 2.475 2.475l1.844-1.844v2.608a1.75 1.75 0 0 0 3.5 0v-2.611l1.845 1.845a1.75 1.75 0 1 0 2.475-2.475l-1.845-1.844h2.609a1.75 1.75 0 0 0 0-3.5z"/><path d="m49.554 62.25h-2.609l1.845-1.845a1.75 1.75 0 0 0 -2.475-2.475l-1.845 1.845v-2.608a1.75 1.75 0 0 0 -3.5 0v2.608l-1.845-1.845a1.75 1.75 0 0 0 -2.475 2.475l1.85 1.845h-2.613a1.75 1.75 0 0 0 0 3.5h2.613l-1.845 1.845a1.75 1.75 0 1 0 2.475 2.475l1.845-1.845v2.608a1.75 1.75 0 0 0 3.5 0v-2.608l1.845 1.845a1.75 1.75 0 0 0 2.475-2.475l-1.85-1.845h2.609a1.75 1.75 0 0 0 0-3.5z"/><path d="m70.833 62.25h-2.608l1.845-1.845a1.75 1.75 0 0 0 -2.475-2.475l-1.845 1.845v-2.608a1.75 1.75 0 0 0 -3.5 0v2.608l-1.845-1.845a1.75 1.75 0 0 0 -2.475 2.475l1.845 1.845h-2.608a1.75 1.75 0 0 0 0 3.5h2.609l-1.845 1.845a1.75 1.75 0 1 0 2.475 2.475l1.845-1.845v2.608a1.75 1.75 0 0 0 3.5 0v-2.608l1.845 1.845a1.75 1.75 0 0 0 2.475-2.475l-1.846-1.845h2.608a1.75 1.75 0 0 0 0-3.5z"/><path d="m92.113 62.25h-2.613l1.845-1.845a1.75 1.75 0 0 0 -2.475-2.475l-1.845 1.845v-2.608a1.75 1.75 0 0 0 -3.5 0v2.608l-1.844-1.844a1.75 1.75 0 0 0 -2.475 2.475l1.845 1.845h-2.605a1.75 1.75 0 0 0 0 3.5h2.609l-1.845 1.845a1.75 1.75 0 1 0 2.475 2.475l1.844-1.844v2.608a1.75 1.75 0 0 0 3.5 0v-2.611l1.845 1.845a1.75 1.75 0 0 0 2.475-2.475l-1.849-1.844h2.609a1.75 1.75 0 0 0 0-3.5z"/><path d="m113.393 62.25h-2.608l1.845-1.845a1.75 1.75 0 0 0 -2.475-2.475l-1.845 1.845v-2.608a1.75 1.75 0 1 0 -3.5 0v2.608l-1.845-1.845a1.75 1.75 0 0 0 -2.475 2.475l1.845 1.845h-2.608a1.75 1.75 0 0 0 0 3.5h2.608l-1.845 1.845a1.75 1.75 0 1 0 2.475 2.475l1.845-1.845v2.608a1.75 1.75 0 0 0 3.5 0v-2.608l1.845 1.845a1.75 1.75 0 0 0 2.475-2.475l-1.845-1.845h2.608a1.75 1.75 0 0 0 0-3.5z"/></g></svg>