<svg id="Layer_1" height="512" viewBox="0 0 128 128" width="512" xmlns="http://www.w3.org/2000/svg" data-name="Layer 1"><path d="m104.723 18.192h16.777v12h-16.777z" fill="#fb4a59"/><path d="m104.723 36.192h16.777v12h-16.777z" fill="#fb4a59"/><path d="m104.723 54.192h16.777v12h-16.777z" fill="#fb4a59"/><path d="m6.5 6.5h106.154v115h-106.154z" fill="#1bce89"/><g fill="#f2f2f2"><path d="m12.5 10.75a1.75 1.75 0 0 0 -1.75 1.75v20.538a1.75 1.75 0 0 0 3.5 0v-20.538a1.75 1.75 0 0 0 -1.75-1.75z"/><path d="m30.827 85.083h57.5a1.75 1.75 0 0 0 0-3.5h-57.5a1.75 1.75 0 0 0 0 3.5z"/><path d="m88.327 92.25h-57.5a1.75 1.75 0 0 0 0 3.5h57.5a1.75 1.75 0 0 0 0-3.5z"/><path d="m88.327 102.917h-57.5a1.75 1.75 0 1 0 0 3.5h57.5a1.75 1.75 0 0 0 0-3.5z"/><path d="m37.062 57.294c0-.226 0-.447.025-.673a8.848 8.848 0 0 1 1.179-3.8l13.658-2.166a8.889 8.889 0 0 1 2.937 5.972 28.115 28.115 0 0 0 17.645-17.657 8.872 8.872 0 0 1 -5.967-2.932l2.161-13.653a8.829 8.829 0 0 1 3.806-1.185c.226-.02.447-.025.673-.025a8.916 8.916 0 0 1 8.914 8.914 36.126 36.126 0 0 1 -36.118 36.119 8.916 8.916 0 0 1 -8.913-8.914z"/></g></svg>