<svg id="Layer_1" height="512" viewBox="0 0 128 128" width="512" xmlns="http://www.w3.org/2000/svg" data-name="Layer 1"><path d="m15.346 6.5h97.308v115h-97.308z" fill="#f2f2f2"/><g fill="#4e8ed5"><path d="m101.654 65.75h-75.308a1.75 1.75 0 0 1 0-3.5h75.308a1.75 1.75 0 1 1 0 3.5z"/><path d="m101.654 80.194h-75.308a1.75 1.75 0 0 1 0-3.5h75.308a1.75 1.75 0 0 1 0 3.5z"/><path d="m101.654 65.75h-75.308a1.75 1.75 0 0 1 0-3.5h75.308a1.75 1.75 0 1 1 0 3.5z"/><path d="m101.654 94.639h-75.308a1.75 1.75 0 0 1 0-3.5h75.308a1.75 1.75 0 1 1 0 3.5z"/><path d="m101.654 80.194h-75.308a1.75 1.75 0 0 1 0-3.5h75.308a1.75 1.75 0 0 1 0 3.5z"/><path d="m101.654 109.083h-75.308a1.75 1.75 0 0 1 0-3.5h75.308a1.75 1.75 0 0 1 0 3.5z"/><path d="m101.654 94.639h-75.308a1.75 1.75 0 0 1 0-3.5h75.308a1.75 1.75 0 1 1 0 3.5z"/><path d="m101.654 22.417h-37.654a1.75 1.75 0 0 1 0-3.5h37.654a1.75 1.75 0 0 1 0 3.5z"/><path d="m101.654 36.861h-37.654a1.75 1.75 0 0 1 0-3.5h37.654a1.75 1.75 0 0 1 0 3.5z"/><path d="m101.654 22.417h-37.654a1.75 1.75 0 0 1 0-3.5h37.654a1.75 1.75 0 0 1 0 3.5z"/><path d="m101.654 51.306h-37.654a1.75 1.75 0 0 1 0-3.5h37.654a1.75 1.75 0 0 1 0 3.5z"/><path d="m101.654 36.861h-37.654a1.75 1.75 0 0 1 0-3.5h37.654a1.75 1.75 0 0 1 0 3.5z"/><path d="m101.654 51.306h-37.654a1.75 1.75 0 0 1 0-3.5h37.654a1.75 1.75 0 0 1 0 3.5z"/><path d="m39.456 35.111h1.344a9.331 9.331 0 0 1 9.331 9.331v5.114a0 0 0 0 1 0 0h-20a0 0 0 0 1 0 0v-5.114a9.331 9.331 0 0 1 9.325-9.331z"/><circle cx="40.126" cy="28.894" r="8.227"/></g></svg>