<svg id="Layer_1" height="512" viewBox="0 0 128 128" width="512" xmlns="http://www.w3.org/2000/svg" data-name="Layer 1"><path d="m6.5 44.096h115v39.808h-115z" fill="#fcb44d"/><g fill="#f2f2f2"><path d="m64 57.167 2.22 4.498 4.965.722-3.593 3.502.849 4.944-4.441-2.334-4.441 2.334.849-4.944-3.593-3.502 4.965-.722z"/><path d="m85.28 57.167 2.22 4.498 4.965.722-3.593 3.502.848 4.944-4.44-2.334-4.441 2.334.848-4.944-3.592-3.502 4.964-.722z"/><path d="m106.559 57.167 2.221 4.498 4.964.722-3.592 3.502.848 4.944-4.441-2.334-4.44 2.334.848-4.944-3.593-3.502 4.965-.722z"/><path d="m42.72 57.167-2.22 4.498-4.965.722 3.593 3.502-.848 4.944 4.44-2.334 4.441 2.334-.848-4.944 3.592-3.502-4.964-.722z"/><path d="m21.441 57.167-2.221 4.498-4.964.722 3.592 3.502-.848 4.944 4.441-2.334 4.44 2.334-.848-4.944 3.593-3.502-4.965-.722z"/></g></svg>