<svg id="Layer_1" height="512" viewBox="0 0 128 128" width="512" xmlns="http://www.w3.org/2000/svg" data-name="Layer 1"><path d="m35.346 64h39.616a20 20 0 0 1 20 20v37.5a0 0 0 0 1 0 0h-79.616a0 0 0 0 1 0 0v-37.5a20 20 0 0 1 20-20z" fill="#4e8ed5"/><circle cx="55.154" cy="39.25" fill="#f2f2f2" r="32.75"/><circle cx="92.75" cy="85.127" fill="#fb4a59" r="19.904"/><path d="m101.942 90.077-4.949-4.95 4.949-4.95-4.242-4.242-4.95 4.95-4.95-4.95-4.242 4.242 4.949 4.95-4.949 4.95 4.242 4.243 4.95-4.95 4.95 4.95z" fill="#f2f2f2"/></svg>