<svg id="Layer_1" height="512" viewBox="0 0 128 128" width="512" xmlns="http://www.w3.org/2000/svg" data-name="Layer 1"><path d="m58.77 74.94-27.5 26.83-4.46-4.46 27.4-26.73a40.825 40.825 0 0 0 4.56 4.36z" fill="#f2f2f2"/><path d="m121.5 46.31a39.81 39.81 0 0 1 -64.96 30.86 40.825 40.825 0 0 1 -4.56-4.36 39.811 39.811 0 1 1 69.52-26.5z" fill="#4e8ed5"/><path d="m81.69 80.12a33.455 33.455 0 0 1 -21.36-7.6 35 35 0 0 1 -3.886-3.72 33.811 33.811 0 1 1 25.246 11.32z" fill="#f2f2f2"/><path d="m43.05 94.3-27.78 27.3-8.15-8.45 27.63-27.16z" fill="#4e8ed5"/></svg>