<svg id="Layer_1" height="512" viewBox="0 0 128 128" width="512" xmlns="http://www.w3.org/2000/svg" data-name="Layer 1"><path d="m120.82 72.85a57.931 57.931 0 0 0 0-17.7h-18.01a39.768 39.768 0 0 0 -5.11-12.34l12.73-12.73a57.532 57.532 0 0 0 -12.51-12.51l-12.73 12.73a39.766 39.766 0 0 0 -12.34-5.11v-18.01a57.936 57.936 0 0 0 -17.7 0v18.01a39.766 39.766 0 0 0 -12.34 5.11l-12.73-12.73a57.532 57.532 0 0 0 -12.51 12.51l12.73 12.73a39.768 39.768 0 0 0 -5.11 12.34h-18.01a57.931 57.931 0 0 0 0 17.7h18.01a39.767 39.767 0 0 0 5.11 12.34l-12.73 12.73a57.53 57.53 0 0 0 12.51 12.51l12.73-12.73a39.766 39.766 0 0 0 12.34 5.11v18.01a57.936 57.936 0 0 0 17.7 0v-18.01a39.766 39.766 0 0 0 12.34-5.11l12.73 12.73a57.53 57.53 0 0 0 12.51-12.51l-12.73-12.73a39.767 39.767 0 0 0 5.11-12.34zm-56.82 13.26a22.11 22.11 0 1 1 22.11-22.11 22.111 22.111 0 0 1 -22.11 22.11z" fill="#4e8ed5"/><path d="m92.107 65.75a1.75 1.75 0 0 1 -1.75-1.75 26.32 26.32 0 0 0 -9.436-20.192 1.75 1.75 0 0 1 2.25-2.68 29.8 29.8 0 0 1 10.686 22.872 1.75 1.75 0 0 1 -1.75 1.75z" fill="#4075af"/></svg>