<svg id="Layer_1" height="512" viewBox="0 0 128 128" width="512" xmlns="http://www.w3.org/2000/svg" data-name="Layer 1"><path d="m6.5 6.5h115v115h-115z" fill="#f2f2f2"/><g fill="#fb4a59"><path d="m6.5 6.5h115v17.692h-115z"/><path d="m83.653 64-19.653 11.347-19.653 11.346v-22.693-22.693l19.653 11.346z"/><path d="m101.654 110.028h-75.308a1.75 1.75 0 1 1 0-3.5h75.309a1.75 1.75 0 0 1 0 3.5z"/></g><circle cx="51.008" cy="108.278" r="4"/><path d="m54.6 106.53a3.989 3.989 0 0 0 -7.18 0h-21.07a1.75 1.75 0 0 0 0 3.5h21.07a3.994 3.994 0 1 0 7.18-3.5z" fill="#d53f4c"/></svg>