<svg id="Layer_1" height="512" viewBox="0 0 128 128" width="512" xmlns="http://www.w3.org/2000/svg" data-name="Layer 1"><path d="m6.5 6.5h115v115h-115z" fill="#f2f2f2"/><path d="m6.5 6.5h115v17.692h-115z" fill="#4e8ed5"/><path d="m89.833 80.372s-11.566-15.013-25.833-15.013-25.833 15.013-25.833 15.013 11.566 15.012 25.833 15.012 25.833-15.012 25.833-15.012z" fill="#4e8ed5"/><g fill="#4075af"><circle cx="64" cy="80.372" r="6.435"/><path d="m64 61.109a1.75 1.75 0 0 1 -1.75-1.75v-9.051a1.75 1.75 0 0 1 3.5 0v9.052a1.75 1.75 0 0 1 -1.75 1.749z"/><path d="m78 64.782a1.75 1.75 0 0 1 -1.514-2.625l4.525-7.838a1.75 1.75 0 1 1 3.031 1.75l-4.525 7.838a1.749 1.749 0 0 1 -1.517.875z"/><path d="m50 64.782a1.749 1.749 0 0 1 -1.518-.875l-4.525-7.838a1.75 1.75 0 0 1 3.031-1.75l4.525 7.838a1.75 1.75 0 0 1 -1.513 2.625z"/></g></svg>