<svg id="Layer_1" height="512" viewBox="0 0 128 128" width="512" xmlns="http://www.w3.org/2000/svg" data-name="Layer 1"><path d="m24.192 18.749h79.615v55.118h-79.615z" fill="#f2f2f2"/><path d="m24.19 32.34h79.62v27.94h-79.62z" fill="#fcb44d"/><path d="m80.269 18.749h-32.538l2.489-12.249h27.56z" fill="#fcb44d"/><path d="m29.997 12.731h9.426v6.018h-9.426z" fill="#d8d8d8"/><path d="m68.713 14.374h-9.426a1.75 1.75 0 1 1 0-3.5h9.426a1.75 1.75 0 0 1 0 3.5z" fill="#f2f2f2"/><circle cx="64" cy="46.308" fill="#d69941" r="18.124"/><path d="m76.125 48.058a1.75 1.75 0 0 1 -1.75-1.75 10.386 10.386 0 0 0 -10.375-10.374 1.75 1.75 0 0 1 0-3.5 13.89 13.89 0 0 1 13.875 13.874 1.75 1.75 0 0 1 -1.75 1.75z" fill="#f2f2f2"/><path d="m59.287 72.333h9.426v49.167h-9.426z" fill="#f2f2f2"/><path d="m56.5 73.867h15v11.26h-15z" fill="#d8d8d8"/></svg>