<svg id="Layer_1" height="512" viewBox="0 0 128 128" width="512" xmlns="http://www.w3.org/2000/svg" data-name="Layer 1"><path d="m6.5 24.19h115v79.62h-115z" fill="#fcb44d"/><g fill="#f2f2f2"><path d="m25.94 24.19v4a1.75 1.75 0 1 1 -3.5 0v-4z"/><path d="m24.19 77.92a1.752 1.752 0 0 0 -1.75 1.75v8.95a1.75 1.75 0 0 0 3.5 0v-8.95a1.746 1.746 0 0 0 -1.75-1.75zm0-20.15a1.758 1.758 0 0 0 -1.75 1.75v8.96a1.75 1.75 0 0 0 3.5 0v-8.96a1.752 1.752 0 0 0 -1.75-1.75zm0-20.14a1.758 1.758 0 0 0 -1.75 1.75v8.95a1.75 1.75 0 0 0 3.5 0v-8.95a1.752 1.752 0 0 0 -1.75-1.75z"/><path d="m25.94 99.81v4h-3.5v-4a1.75 1.75 0 0 1 3.5 0z"/><path d="m38.673 42.562a6.288 6.288 0 1 1 12.564-.038 6.286 6.286 0 1 1 -12.564.038zm9.3 0c0-2.213-1.312-3.751-3.038-3.751-1.763 0-3.037 1.5-3.037 3.751 0 2.138 1.313 3.675 3.037 3.675 1.765-.001 3.039-1.501 3.039-3.675zm11.814-6.339h3.451l-17.814 25.766h-3.451zm-5.887 19.615a6.288 6.288 0 1 1 12.565-.038 6.288 6.288 0 1 1 -12.564.037zm9.339 0c0-2.175-1.312-3.713-3.076-3.713s-3 1.538-3 3.676c0 2.213 1.275 3.751 3.038 3.751s3.038-1.501 3.038-3.714z"/><path d="m112.654 80.194h-75.308a1.75 1.75 0 0 1 0-3.5h75.309a1.75 1.75 0 0 1 0 3.5z"/><path d="m112.654 94.639h-75.308a1.75 1.75 0 0 1 0-3.5h75.309a1.75 1.75 0 1 1 0 3.5z"/><path d="m112.654 80.194h-75.308a1.75 1.75 0 0 1 0-3.5h75.309a1.75 1.75 0 0 1 0 3.5z"/><path d="m112.654 94.639h-75.308a1.75 1.75 0 0 1 0-3.5h75.309a1.75 1.75 0 1 1 0 3.5z"/><path d="m112.654 36.861h-29.404a1.75 1.75 0 0 1 0-3.5h29.4a1.75 1.75 0 0 1 0 3.5z"/><path d="m112.654 51.306h-29.404a1.75 1.75 0 0 1 0-3.5h29.4a1.75 1.75 0 0 1 0 3.5z"/><path d="m112.654 36.861h-29.404a1.75 1.75 0 0 1 0-3.5h29.4a1.75 1.75 0 0 1 0 3.5z"/><path d="m112.654 65.75h-29.404a1.75 1.75 0 0 1 0-3.5h29.4a1.75 1.75 0 1 1 0 3.5z"/><path d="m112.654 51.306h-29.404a1.75 1.75 0 0 1 0-3.5h29.4a1.75 1.75 0 0 1 0 3.5z"/><path d="m112.654 65.75h-29.404a1.75 1.75 0 0 1 0-3.5h29.4a1.75 1.75 0 1 1 0 3.5z"/></g></svg>